<svg xmlns="http://www.w3.org/2000/svg" viewBox="0 0 180 180" fill="none">
  <defs>
    <linearGradient id="g" x1="24" y1="20" x2="156" y2="160" gradientUnits="userSpaceOnUse">
      <stop stop-color="#0f766e"/>
      <stop offset="0.55" stop-color="#14b8a6"/>
      <stop offset="1" stop-color="#f59e0b"/>
    </linearGradient>
    <linearGradient id="bg" x1="0" y1="0" x2="180" y2="180" gradientUnits="userSpaceOnUse">
      <stop stop-color="#0f172a"/>
      <stop offset="1" stop-color="#1e293b"/>
    </linearGradient>
  </defs>
  <rect width="180" height="180" rx="40" fill="url(#bg)"/>
  <rect x="8" y="8" width="164" height="164" rx="34" stroke="url(#g)" stroke-width="4" fill="none" opacity="0.85"/>
  <path d="M48 128V52h24c12 0 20 7.5 20 19 0 7.5-3.5 13-9.5 15.5L98 128H72L82 104H62V128H48zm18-46h6c4.5 0 7-2.5 7-6.5s-2.5-6.5-7-6.5h-6v13z" fill="url(#g)"/>
  <path d="M106 128V52h18v58.5H140V128h-34z" fill="url(#g)"/>
  <circle cx="132" cy="62" r="6" fill="#f59e0b"/>
</svg>
