<svg xmlns="http://www.w3.org/2000/svg" viewBox="0 0 64 64" fill="none">
  <defs>
    <linearGradient id="g" x1="10" y1="8" x2="54" y2="56" gradientUnits="userSpaceOnUse">
      <stop stop-color="#0f766e"/>
      <stop offset="0.55" stop-color="#14b8a6"/>
      <stop offset="1" stop-color="#f59e0b"/>
    </linearGradient>
    <linearGradient id="bg" x1="0" y1="0" x2="64" y2="64" gradientUnits="userSpaceOnUse">
      <stop stop-color="#0f172a"/>
      <stop offset="1" stop-color="#1e293b"/>
    </linearGradient>
  </defs>
  <rect width="64" height="64" rx="16" fill="url(#bg)"/>
  <rect x="2.5" y="2.5" width="59" height="59" rx="13.5" stroke="url(#g)" stroke-width="2" fill="none" opacity="0.85"/>
  <path d="M18 44V20h8.5c4.2 0 7 2.6 7 6.4 0 2.5-1.2 4.4-3.2 5.3L35 44h-6.2l-4.8-10.5H24V44H18zm6-15.2h2.1c1.6 0 2.5-.8 2.5-2.1s-.9-2.1-2.5-2.1H24v4.2z" fill="url(#g)"/>
  <path d="M38 44V20h6v19.5H50V44H38z" fill="url(#g)"/>
  <circle cx="47" cy="24" r="2.2" fill="#f59e0b" opacity="0.9"/>
</svg>
